# AST/ASF file generated using VICON BodyLanguage
# -----------------------------------------------
:version 1.10
:name VICON
:units
  mass 1.0
  length 0.45
  angle deg
:documentation
   .ast/.asf automatically generated from VICON data using
   VICON BodyBuilder and BodyLanguage model FoxedUp or BRILLIANT.MOD
:root
   order TX TY TZ RX RY RZ
   axis XYZ
   position 0 0 0  
   orientation 0 0 0 
:bonedata
  begin
     id 1 
     name lhipjoint
     direction 0.660183 -0.676772 0.325788 
     length 2.75133 
     axis 0 0 0  XYZ
  end
  begin
     id 2 
     name lfemur
     direction 0.34202 -0.939693 0  
     length 7.70317  
     axis 0 0 20  XYZ
    dof rx ry rz
    limits (-160.0 20.0)
           (-70.0 70.0)
           (-60.0 70.0)
  end
  begin
     id 3 
     name ltibia
     direction 0.342105 -0.939662 0   
     length 7.18701   
     axis 0 0 20   XYZ
    dof rx
    limits (-10.0 170.0)
  end
  begin
     id 4 
     name lfoot
     direction 0.14163 -0.389126 0.910232   
     length 2.41719   
     axis -90 7.62852e-016 20   XYZ
    dof rx rz
    limits (-45.0 90.0)
           (-70.0 20.0)
  end
  begin
     id 5 
     name ltoes
     direction 1.53533e-011 -4.21926e-011 1   
     length 1.18611   
     axis -90 7.62852e-016 20   XYZ
    dof rx
    limits (-90.0 20.0)
  end
  begin
     id 6 
     name rhipjoint
     direction -0.6658 -0.67229 0.323631   
     length 2.76968  
     axis 0 0 0  XYZ 
  end
  begin
     id 7 
     name rfemur
     direction -0.34202 -0.939693 0   
     length 7.92547   
     axis 0 0 -20   XYZ
    dof rx ry rz
    limits (-160.0 20.0)
           (-70.0 70.0)
           (-70.0 60.0)
  end
  begin
     id 8 
     name rtibia
     direction -0.342022 -0.939692 0   
     length 7.22641   
     axis 0 0 -20   XYZ
    dof rx
    limits (-10.0 170.0)
 end
 begin
     id 9 
     name rfoot
     direction -0.105675 -0.29034 0.951071   
     length 2.48149  
     axis -90 -7.62852e-016 -20   XYZ
    dof rx rz
    limits (-45.0 90.0)
           (-20.0 70.0)
  end
  begin
     id 10 
     name rtoes
     direction -1.5349e-011 -4.21859e-011 1   
     length 1.23343   
     axis -90 -7.62852e-016 -20   XYZ
    dof rx
    limits (-90.0 20.0)
  end
  begin
     id 11 
     name lowerback
     direction 0.0104173 0.993624 -0.112266   
     length 2.00527   
     axis 0 0 0   XYZ
    dof rx ry rz
    limits (-20.0 45.0)
           (-30.0 30.0)
           (-30.0 30.0)
  end
  begin
     id 12 
     name upperback
     direction 0.00733149 0.999856 -0.0152913   
     length 2.01385   
     axis 0 0 0   XYZ
    dof rx ry rz
    limits (-20.0 45.0)
           (-30.0 30.0)
           (-30.0 30.0)
  end
  begin
     id 13 
     name thorax
     direction 0.0026304 0.999318 0.036841   
     length 2.03734   
     axis 0 0 0   XYZ
    dof rx ry rz
    limits (-20.0 45.0)
           (-30.0 30.0)
           (-30.0 30.0)
  end
  begin
     id 14 
     name lowerneck
     direction 0.0293154 0.998757 0.0403082   
     length 1.65303   
     axis 0 0 0   XYZ
    dof rx ry rz
    limits (-20.0 45.0)
           (-30.0 30.0)
           (-30.0 30.0)
  end
  begin
     id 15 
     name upperneck
     direction -0.0376619 0.998184 -0.0470083   
     length 1.60926   
     axis 0 0 0   XYZ
    dof rx ry rz
    limits (-20.0 45.0)
           (-30.0 30.0)
           (-30.0 30.0)
  end
  begin
     id 16
     name head
     direction -0.0170133 0.999635 -0.0209778  
     length 1.73625  
     axis 0 0 0   XYZ
    dof rx ry rz
    limits (-20.0 45.0)
           (-30.0 30.0)
           (-30.0 30.0)
  end
  begin
     id 17 
     name lclavicle
     direction 0.919857 0.39181 -0.0186333  
     length 3.75313  
     axis 0 0 0   XYZ
    dof ry rz
    limits (-20.0 10.0)
           (0.0 20.0)
  end
  begin
     id 18 
     name lhumerus
     direction 1 -4.48988e-011 1.44029e-027   
     length 5.49313   
     axis 180 -30 -90   XYZ
    dof rx ry rz
    limits (-60.0 90.0)
           (-90.0 90.0)
           (-90.0 90.0)
  end
  begin
     id 19
     name lradius
     direction 1 -4.48924e-011 7.46281e-027   
     length 3.29037   
     axis 180 -30 -90   XYZ
    dof rx
    limits (-10.0 170.0)
  end
  begin
     id 20
     name lwrist
     direction 1 -4.48955e-011 2.19879e-026   
     length 1.64519   
     axis -1.34358e-014 90 90   XYZ
    dof ry
    limits (-180.0 0.0)
 end
  begin
     id 21 
     name lhand
     direction 1 -4.48978e-011 4.39747e-026   
     length 0.729656   
     axis -2.80598e-014 90 90   XYZ
    dof rx rz
    limits (-90.0 90.0)
           (-45.0 45.0)
  end
  begin
     id 22 
     name lfingers
     direction 1 -4.49071e-011 8.79411e-026   
     length 0.588268   
     axis -5.61193e-014 90 90   XYZ
    dof rx
    limits (0.0 90.0)
  end
  begin
     id 23
     name lthumb
     direction 0.707107 -6.34817e-011 0.707107   
     length 0.844638   
     axis -90 45 -9.86923e-015   XYZ
    dof rx rz
    limits (-45.0 45.0)
           (-45.0 45.0)
  end
  begin
     id 24 
     name rclavicle
     direction -0.919898 0.388279 0.0550233   
     length 3.7171  
     axis 0 0 0   XYZ 
    dof ry rz
    limits (-10.0 20.0)
           (-20.0 0.0)
  end
  begin
     id 25 
     name rhumerus
     direction -1 -4.48968e-011 9.98372e-028  
     length 5.23684   
     axis 180 30 90   XYZ
    dof rx ry rz
    limits (-90.0 60.0)
           (-90.0 90.0)
           (-90.0 90.0)
  end
  begin
     id 26 
     name rradius
     direction -1 -4.48956e-011 1.01023e-026   
     length 3.38251   
     axis 180 30 90   XYZ
    dof rx
    limits (-10.0 170.0)
  end
  begin
     id 27 
     name rwrist
     direction -1 -4.4892e-011 2.19886e-026   
     length 1.69126   
     axis -1.34358e-014 -90 -90   XYZ
    dof ry
    limits (-180.0 0.0)
  end
  begin
     id 28
     name rhand
     direction -1 -4.49024e-011 4.39727e-026   
     length 0.691454   
     axis -2.80598e-014 -90 -90   XYZ
    dof rx rz
    limits (-90.0 90.0)
           (-45.0 45.0)
  end
  begin
     id 29
     name rfingers
     direction -1 -4.49097e-011 8.79388e-026   
     length 0.557468   
     axis -5.61193e-014 -90 -90   XYZ
    dof rx
    limits (0.0 90.0)
  end
  begin
     id 30
     name rthumb
     direction -0.707107 -6.34938e-011 0.707107   
     length 0.800416   
     axis -90 -45 9.86923e-015   XYZ
    dof rx rz
    limits (-45.0 45.0)
           (-45.0 45.0)
  end
:hierarchy
  begin
    root lhipjoint rhipjoint lowerback
    lhipjoint lfemur
    lfemur ltibia
    ltibia lfoot
    lfoot ltoes
    rhipjoint rfemur
    rfemur rtibia
    rtibia rfoot
    rfoot rtoes
    lowerback upperback
    upperback thorax
    thorax lowerneck lclavicle rclavicle
    lowerneck upperneck
    upperneck head
    lclavicle lhumerus
    lhumerus lradius
    lradius lwrist
    lwrist lhand lthumb
    lhand lfingers
    rclavicle rhumerus
    rhumerus rradius
    rradius rwrist
    rwrist rhand rthumb
    rhand rfingers
  end

#!OML:ASF H:\BabyWalks\Project 1\Capture day 1\Session 1\baby.ASF
:FULLY-SPECIFIED
:DEGREES
182
root -29.8633 17.708 -4.02717 -6.51898 80.8183 -17.5912
lowerback 16.8982 -1.82584 -3.9261
upperback 4.38343 -2.66044 3.16267
thorax -4.41826 -1.19993 6.13543
lowerneck -5.4948 3.21555 3.72098
upperneck -8.12986 3.95009 -7.80232
head -1.38899 2.06245 -3.14078
rclavicle 1.93318e-014 -1.39149e-015
rhumerus -44.7791 23.792 -79.0859
rradius 41.0698
rwrist 0.212135
rhand -3.29659 -16.935
rfingers 7.12502
rthumb 22.4293 -45.6527
lclavicle 1.93318e-014 -1.39149e-015
lhumerus -42.4579 -7.16006 80.229
lradius 74.5884
lwrist 5.88998
lhand -5.99688 10.3511
lfingers 7.12502
lthumb 19.8354 39.359
rfemur -28.3604 15.0169 15.3148
rtibia 30.7888
rfoot -18.8135 11.2678
rtoes -8.66691
lfemur 3.12336 -8.01206 -17.8446
ltibia 19.539
lfoot -13.704 -22.1488
ltoes 17.3318
183
root -29.7007 17.6787 -3.99852 -5.79019 81.1543 -16.7825
lowerback 16.8554 -1.93852 -3.71752
upperback 4.33934 -2.75762 3.37514
thorax -4.42914 -1.24709 6.26322
lowerneck -5.37487 3.24407 4.07398
upperneck -8.15076 3.9468 -8.52015
head -1.39678 2.06474 -3.45796
rclavicle -4.78326e-015 -2.95692e-015
rhumerus -44.6664 23.315 -78.6549
rradius 41.0643
rwrist 0.0798061
rhand -3.66476 -17.027
rfingers 7.12502
rthumb 22.0759 -45.7869
lclavicle -4.78326e-015 -2.95692e-015
lhumerus -43.2168 -6.87245 80.6749
lradius 73.6592
lwrist 5.69678
lhand -5.85534 10.369
lfingers 7.12502
lthumb 19.9714 39.3628
rfemur -28.1129 14.9004 15.4251
rtibia 31.2526
rfoot -18.5076 10.8167
rtoes -7.70728
lfemur 3.21058 -7.73603 -17.9226
ltibia 20.359
lfoot -12.8372 -23.0209
ltoes 17.035
184
root -29.5377 17.6454 -3.96817 -5.05496 81.5143 -15.9138
lowerback 16.8525 -2.04571 -3.50336
upperback 4.31615 -2.84653 3.57263
thorax -4.44111 -1.28985 6.37157
lowerneck -5.26246 3.25557 4.3811
upperneck -8.19146 3.92584 -9.17205
head -1.41322 2.05955 -3.74835
rclavicle -7.65321e-015 -4.36332e-014
rhumerus -44.5806 22.8018 -78.2612
rradius 41.0652
rwrist -0.029314
rhand -4.17519 -17.1034
rfingers 7.12502
rthumb 21.5857 -45.9203
lclavicle -7.65321e-015 -4.36332e-014
lhumerus -43.9791 -6.58474 81.1234
lradius 72.6856
lwrist 5.48416
lhand -5.72025 10.3945
lfingers 7.12502
lthumb 20.1013 39.3746
rfemur -27.7594 14.9177 15.5103
rtibia 31.9091
rfoot -18.458 10.2259
rtoes -6.61072
lfemur 3.19676 -7.38607 -17.9638
ltibia 21.4526
lfoot -11.8422 -24.0059
ltoes 16.8165
185
root -29.3742 17.6084 -3.93587 -4.38965 81.9016 -15.0528
lowerback 16.8908 -2.14748 -3.28038
upperback 4.32334 -2.92573 3.75912
thorax -4.44495 -1.32781 6.46246
lowerneck -5.1541 3.2459 4.61678
upperneck -8.26449 3.88246 -9.73192
head -1.44473 2.04515 -3.99711
rclavicle 5.26779e-015 4.57205e-015
rhumerus -44.5082 22.247 -77.8995
rradius 41.0588
rwrist -0.105648
rhand -4.83268 -17.1446
rfingers 7.12502
rthumb 20.9542 -46.0328
lclavicle 5.26779e-015 4.57205e-015
lhumerus -44.748 -6.28768 81.57
lradius 71.6887
lwrist 5.25315
lhand -5.59122 10.4385
lfingers 7.12502
lthumb 20.2253 39.4055
rfemur -27.2879 15.0922 15.5803
rtibia 32.7083
rfoot -18.7189 9.52799
rtoes -5.46143
lfemur 3.07741 -6.97818 -17.9527
ltibia 22.8429
lfoot -10.6782 -25.0785
ltoes 16.6473
186
root -29.2113 17.5684 -3.90263 -3.83096 82.2854 -14.2623
lowerback 16.9716 -2.24104 -3.02896
upperback 4.34702 -2.98872 3.93217
thorax -4.45847 -1.3572 6.52142
lowerneck -5.05639 3.21483 4.75536
upperneck -8.36836 3.81749 -10.1721
head -1.49089 2.02201 -4.18763
rclavicle -3.77691e-014 4.49253e-014
rhumerus -44.4605 21.6654 -77.5825
rradius 41.0554
rwrist -0.147303
rhand -5.62053 -17.1669
rfingers 7.12502
rthumb 20.1971 -46.1369
lclavicle -3.77691e-014 4.49253e-014
lhumerus -45.5518 -5.96541 82.0022
lradius 70.696
lwrist 5.00809
lhand -5.4878 10.4786
lfingers 7.12502
lthumb 20.3247 39.4351
rfemur -26.7394 15.4077 15.6482
rtibia 33.5858
rfoot -19.2777 8.85472
rtoes -4.33359
lfemur 2.80848 -6.53087 -17.8831
ltibia 24.5495
lfoot -9.29089 -26.1679
ltoes 16.5303
